<svg xmlns="http://www.w3.org/2000/svg" width="109" height="19" viewBox="0 0 109 19"><g><g><path fill="#fff" d="M.421.556h9.694v1.75H6.332v15.75H4.204V2.305H.421zm13.827 15.75h5.911v1.75H12.12V.555h8.04v1.75h-5.912v5.75h5.202v1.75h-5.202zM29.562.555h2.128l-3.192 8.5 3.547 9h-2.128l-2.956-7.5-2.955 7.5h-2.128l3.547-9-3.192-8.5h2.128l2.6 7zm13.768 0v17.5h-2.128v-8h-4.965v8h-2.128V.555h2.128v7.75h4.965V.556zm7.684-.25c.804 0 1.517.142 2.14.425.623.284 1.155.767 1.596 1.45.441.684.776 1.605 1.005 2.763.228 1.158.343 2.612.343 4.362s-.115 3.204-.343 4.362c-.229 1.159-.564 2.08-1.005 2.762-.441.684-.973 1.167-1.596 1.45-.623.283-1.336.425-2.14.425-.803 0-1.517-.142-2.14-.425-.622-.283-1.154-.766-1.595-1.45-.442-.683-.777-1.603-1.005-2.762-.229-1.158-.343-2.612-.343-4.362s.114-3.204.343-4.362c.228-1.158.563-2.079 1.005-2.763.44-.683.973-1.166 1.596-1.45.622-.283 1.336-.424 2.14-.424zm0 16.5c.379 0 .749-.109 1.112-.326.362-.216.677-.608.946-1.175.267-.566.484-1.333.65-2.3.165-.966.248-2.2.248-3.7s-.083-2.732-.248-3.699c-.166-.966-.383-1.733-.65-2.3-.269-.566-.584-.958-.946-1.175a2.146 2.146 0 0 0-1.112-.324c-.378 0-.748.108-1.11.324-.364.217-.679.609-.947 1.175-.268.567-.484 1.334-.65 2.3-.165.967-.248 2.2-.248 3.7s.083 2.733.248 3.7c.166.966.382 1.733.65 2.3.268.566.583.958.946 1.174a2.14 2.14 0 0 0 1.111.325zm13.627-1l-3.429-10.75h-.118l-.71 13h-2.127l.945-17.5h2.601l3.854 12h.095l3.854-12h2.6l.947 17.5h-2.128l-.71-13h-.118l-3.428 10.75zm13.652-2.25l-1.064 4.5H75.1l4.02-17.5h3.073l4.02 17.5h-2.129l-1.064-4.5zm2.411-10.5h-.094l-1.963 8.75h4.02zm11.401 8.125c.536 0 .997-.07 1.384-.213.386-.141.705-.387.957-.737s.438-.825.556-1.425c.118-.6.177-1.35.177-2.25 0-.9-.059-1.65-.177-2.25-.118-.6-.304-1.075-.556-1.425a2.023 2.023 0 0 0-.957-.737c-.387-.142-.848-.213-1.384-.213H90.45v9.25zm-1.655 6.874h-2.128V.806a10.63 10.63 0 0 1 1.81-.387 16.116 16.116 0 0 1 1.973-.112c.946 0 1.75.104 2.412.312.662.209 1.198.554 1.608 1.037.41.484.71 1.125.898 1.925.19.8.284 1.792.284 2.975 0 1.217-.09 2.233-.272 3.05-.181.817-.457 1.47-.827 1.962a3.05 3.05 0 0 1-1.395 1.05c-.56.209-1.226.313-1.998.313-.363 0-.773-.025-1.23-.075-.457-.05-.835-.109-1.135-.175zM98.7.556h9.694v1.75h-3.783v15.75h-2.128V2.305H98.7z"/></g></g></svg>